<svg width="40" height="54" viewBox="0 0 40 54" fill="none" xmlns="http://www.w3.org/2000/svg">
<path d="M0.808 54V43.56C1.024 43.224 1.672 42.6 2.752 41.688C3.856 40.752 5.188 39.66 6.748 38.412C8.332 37.164 9.976 35.88 11.68 34.56C13.384 33.216 14.956 31.968 16.396 30.816C18.076 29.496 19.708 28.116 21.292 26.676C22.876 25.236 24.184 23.712 25.216 22.104C26.248 20.496 26.764 18.792 26.764 16.992C26.764 14.904 26.26 13.188 25.252 11.844C24.244 10.5 22.624 9.828 20.392 9.828C18.568 9.828 17.128 10.236 16.072 11.052C15.04 11.868 14.308 12.996 13.876 14.436C13.444 15.876 13.228 17.556 13.228 19.476H0.376C0.376 15.444 1.168 11.976 2.752 9.072C4.336 6.168 6.628 3.936 9.628 2.376C12.652 0.815998 16.3 0.0359974 20.572 0.0359974C24.796 0.0359974 28.324 0.803998 31.156 2.34C33.988 3.852 36.112 5.904 37.528 8.496C38.944 11.064 39.652 13.932 39.652 17.1C39.652 19.284 39.232 21.3 38.392 23.148C37.576 24.972 36.508 26.652 35.188 28.188C33.868 29.724 32.464 31.116 30.976 32.364C29.488 33.588 28.072 34.704 26.728 35.712C24.472 37.392 22.564 38.832 21.004 40.032C19.444 41.232 18.22 42.204 17.332 42.948C16.468 43.668 15.928 44.184 15.712 44.496H39.112V54H0.808Z" fill="#391400"/>
</svg>
