<svg width="39" height="55" viewBox="0 0 39 55" fill="none" xmlns="http://www.w3.org/2000/svg">
<path d="M28.356 25.992C30.42 26.064 32.244 26.652 33.828 27.756C35.436 28.836 36.684 30.288 37.572 32.112C38.46 33.936 38.904 36.012 38.904 38.34C38.904 41.244 38.232 43.956 36.888 46.476C35.568 48.996 33.492 51.036 30.66 52.596C27.828 54.132 24.18 54.9 19.716 54.9C15.852 54.9 12.66 54.408 10.14 53.424C7.62 52.416 5.628 51.048 4.164 49.32C2.7 47.592 1.668 45.648 1.068 43.488C0.468 41.304 0.168 39.024 0.168 36.648C0.168 36.624 0.168 36.6 0.168 36.576C0.168 36.552 0.168 36.528 0.168 36.504H12.984C12.984 36.528 12.984 36.552 12.984 36.576C12.984 36.6 12.984 36.624 12.984 36.648C12.984 38.88 13.272 40.608 13.848 41.832C14.424 43.056 15.216 43.92 16.224 44.424C17.256 44.904 18.468 45.144 19.86 45.144C21.66 45.144 23.136 44.604 24.288 43.524C25.464 42.444 26.052 40.596 26.052 37.98C26.052 36.78 25.908 35.736 25.62 34.848C25.332 33.936 24.888 33.18 24.288 32.58C23.712 31.98 22.932 31.536 21.948 31.248C20.988 30.96 19.812 30.816 18.42 30.816H16.62V22.032H18.42C19.812 22.032 20.988 21.852 21.948 21.492C22.908 21.132 23.688 20.652 24.288 20.052C24.912 19.428 25.356 18.708 25.62 17.892C25.908 17.076 26.052 16.224 26.052 15.336C26.052 13.44 25.476 12.048 24.324 11.16C23.196 10.272 21.78 9.828 20.076 9.828C18.084 9.828 16.404 10.392 15.036 11.52C13.668 12.648 12.984 14.676 12.984 17.604H0.168C0.168 15.324 0.528 13.14 1.248 11.052C1.968 8.94 3.096 7.068 4.632 5.436C6.192 3.78 8.22 2.472 10.716 1.512C13.236 0.527997 16.272 0.0359974 19.824 0.0359974C24.336 0.0359974 27.984 0.755998 30.768 2.196C33.576 3.636 35.628 5.484 36.924 7.74C38.244 9.972 38.904 12.276 38.904 14.652C38.904 16.692 38.46 18.564 37.572 20.268C36.684 21.948 35.436 23.304 33.828 24.336C32.244 25.344 30.42 25.896 28.356 25.992Z" fill="#391400"/>
</svg>
